<svg xmlns="http://www.w3.org/2000/svg" viewBox="0 0 24 24" width="24" height="24">
  <path fill="currentColor" d="M12 .298C5.373.298 0 5.67 0 12.298c0 5.3 3.438 9.8 8.206 11.378.6.11.82-.258.82-.578 0-.288-.01-1.048-.015-2.055-3.338.724-4.042-1.552-4.042-1.552-.546-1.388-1.333-1.757-1.333-1.757-1.09-.744.082-.73.082-.73 1.205.086 1.838 1.236 1.838 1.236 1.07 1.837 2.808 1.305 3.495.998.108-.778.417-1.307.76-1.607-2.665-.305-5.467-1.332-5.467-5.93 0-1.31.465-2.383 1.235-3.224-.124-.304-.54-1.526.118-3.18 0 0 1.01-.322 3.3 1.233.96-.268 1.98-.402 3-.408 1.02.006 2.04.14 3 .408 2.28-1.555 3.29-1.233 3.29-1.233.66 1.654.242 2.876.118 3.18.77.84 1.235 1.914 1.235 3.224 0 4.61-2.807 5.62-5.48 5.92.43.372.815 1.1.815 2.22 0 1.606-.015 2.896-.015 3.286 0 .32.21.695.825.576C20.566 22.088 24 17.598 24 12.298 24 5.67 18.627.298 12 .298z"/>
</svg>
